<svg xmlns="http://www.w3.org/2000/svg" width="28" height="25" viewBox="0 0 28 25">
  <defs>
    <style>
      .cls-1 {
        fill: #3c3c3c;
        fill-rule: evenodd;
      }
    </style>
  </defs>
  <path id="briefcase" class="cls-1" d="M561.2,1425a0.8,0.8,0,0,0,.794-0.8v-18.39a0.8,0.8,0,0,0-.8-0.8h-1.774a0.4,0.4,0,0,1-.393-0.4v-1.17a3.416,3.416,0,0,0-3.408-3.43h-5.2a3.416,3.416,0,0,0-3.408,3.43v1.17a0.4,0.4,0,0,1-.393.4h-1.826a0.8,0.8,0,0,0-.8.8v18.39a0.8,0.8,0,0,0,.793.8H561.2Zm-5.346-23.01a1.159,1.159,0,0,1,1.157,1.16v1.46a0.4,0.4,0,0,1-.393.4h-7.239a0.4,0.4,0,0,1-.393-0.4v-1.46a1.16,1.16,0,0,1,1.158-1.16h5.71Zm-14.879,2.99a1.967,1.967,0,0,0-1.966,1.97v16.07a1.975,1.975,0,0,0,1.966,1.98h1.217a0.8,0.8,0,0,0,.794-0.8v-18.43a0.789,0.789,0,0,0-.794-0.79h-1.217ZM563,1424.2a0.8,0.8,0,0,0,.793.8h1.249a1.975,1.975,0,0,0,1.966-1.98v-16.07a1.967,1.967,0,0,0-1.966-1.97h-1.249a0.789,0.789,0,0,0-.793.79v18.43Z" transform="translate(-539 -1400)"/>
</svg>
