<svg xmlns="http://www.w3.org/2000/svg" width="26" height="26" viewBox="0 0 26 26">
  <defs>
    <style>
      .cls-1 {
        fill: #3c3c3c;
        fill-rule: evenodd;
      }
    </style>
  </defs>
  <path id="earth" class="cls-1" d="M260,1398.99a13.005,13.005,0,1,0,13,13A13,13,0,0,0,260,1398.99Zm0.978,22.33a6.546,6.546,0,0,1,1.976-4.13c2.457-2.53.583-3.84-1.793-4.16s-4.024.62-4.608-.96a1.679,1.679,0,0,1,.819-2.37c0.353-.12,1.03-0.49,2.129.83,0.461,0.46,1.088.53,1.074-.04s-0.731-1.74.046-2.66,2.555-1.37,2.475-2.73-1.233-1.93-2.6-1.57-2.109.62-2.5-.55c-0.087-.26-0.159-0.52-0.22-0.76a0.554,0.554,0,0,1,.436-0.68,10.543,10.543,0,0,1,11.473,6.12,2.173,2.173,0,0,1-1.481,3.01l-0.027.01c-1.627.37-2.4,1.02-.56,2.58,0.441,0.29.916,0.58,1.36,0.92a1.951,1.951,0,0,1,.583,2.4,10.594,10.594,0,0,1-7.187,5.74,1.152,1.152,0,0,1-1.394-1h0Zm-5.116-19.09a0.367,0.367,0,0,1,.486.19c0.16,0.38-.17.84-1.568,1.92-1.765,1.38-2.068,2.53-1.727,4.8s1.679,2.33,2.517,4.05,0.076,3.17,1.356,6.11c0.56,1.18,1.282,1.91,1.579,2.5a0.426,0.426,0,0,1-.461.61A10.6,10.6,0,0,1,255.866,1402.23Z" transform="translate(-247 -1399)"/>
</svg>
