<svg xmlns="http://www.w3.org/2000/svg" width="26" height="23" viewBox="0 0 26 23">
  <defs>
    <style>
      .cls-1 {
        fill: #3c3c3c;
        fill-rule: evenodd;
      }
    </style>
  </defs>
  <path id="file-drawer" class="cls-1" d="M1147.98,1403.99h-15v-1.12a0.864,0.864,0,0,1,.87-0.87h13.26a0.864,0.864,0,0,1,.87.87v1.12Zm0.99,5.01h-17.98v-3.03a0.975,0.975,0,0,1,.98-0.98h16.02a0.975,0.975,0,0,1,.98.98V1409Zm1.9-2.83a0.479,0.479,0,0,0-.54-0.22,0.45,0.45,0,0,0-.34.44l-0.03,3.16a0.459,0.459,0,0,1-.46.46h-19a0.465,0.465,0,0,1-.46-0.46l-0.03-3.16a0.48,0.48,0,0,0-.35-0.45,0.471,0.471,0,0,0-.52.23l-1.88,3.28a2.317,2.317,0,0,0-.26,1.24l1.01,13.1a1.31,1.31,0,0,0,1.31,1.21h21.37a1.31,1.31,0,0,0,1.31-1.21l1-13.1a2.317,2.317,0,0,0-.26-1.24Zm-13.19,12.82a3.694,3.694,0,0,1-3.68-3.7,1.1,1.1,0,0,1,1.13-1.3,1.137,1.137,0,0,1,1.15,1.35,1.37,1.37,0,0,0,1.36,1.37h4.7a1.37,1.37,0,0,0,1.36-1.37,1.182,1.182,0,0,1,1.17-1.35,1.135,1.135,0,0,1,1.13,1.3,3.694,3.694,0,0,1-3.68,3.7h-4.64Z" transform="translate(-1127 -1402)"/>
</svg>
