<svg xmlns="http://www.w3.org/2000/svg" width="30" height="29" viewBox="0 0 30 29">
  <defs>
    <style>
      .cls-1 {
        fill: #3c3c3c;
        fill-rule: evenodd;
      }
    </style>
  </defs>
  <path id="photos" class="cls-1" d="M857.343,1399.27a1.59,1.59,0,0,0-1.893-1.23l-22.212,4.94a1.622,1.622,0,0,0-1.212,1.92l2.691,12.44-0.615,5.03a1.612,1.612,0,0,0,1.382,1.8l22.567,2.83a1.588,1.588,0,0,0,1.773-1.4L862,1407.78a1.606,1.606,0,0,0-1.382-1.8l-1.187-.15a1,1,0,0,1-.841-0.78Zm-13.661,4.58a0.347,0.347,0,0,1-.032-0.68l10.838-2.47a0.827,0.827,0,0,1,.988.63l0.781,3.53a0.42,0.42,0,0,1-.46.51Zm-9.189,2.14a0.706,0.706,0,0,1,.53-0.85l0.628-.15a0.433,0.433,0,0,1,.517.48l-0.347,2.84a0.408,0.408,0,0,1-.8.04Zm2.744,16.2a0.832,0.832,0,0,1-.724-0.93l1.725-14.74a0.823,0.823,0,0,1,.918-0.73l19.687,2.37a0.832,0.832,0,0,1,.723.93l-1.724,14.73a0.824,0.824,0,0,1-.919.74Zm19.659-10.31a1.674,1.674,0,1,1-1.674-1.7A1.687,1.687,0,0,1,856.9,1411.88Zm-5.109,3.19a0.693,0.693,0,0,0-1.075-.13l-0.666.65a0.826,0.826,0,0,1-1.268-.15l-1.8-2.82a0.958,0.958,0,0,0-1.478-.18l-6.3,6.12a0.66,0.66,0,0,0,.373,1.13l15.339,1.89a0.541,0.541,0,0,0,.508-0.83Z" transform="translate(-832 -1398)"/>
</svg>
