<svg xmlns="http://www.w3.org/2000/svg" width="14" height="14" viewBox="0 0 14 14"><g><g><path fill="#797979" d="M4.376 9.642c3.264 3.271 6.186 4.255 6.592 4.313.407.059 1.073.185 2.04-.78 1.131-1.133 1.245-1.73.622-2.353-.623-.625-2.17-1.57-2.59-1.813-.421-.243-.779-.165-1.082.047-.303.212-.653.481-.978.716-.324.236-.729.335-1.164.059a11.788 11.788 0 0 1-2.003-1.629 11.804 11.804 0 0 1-1.625-2.007c-.276-.436-.176-.842.058-1.167.235-.325.504-.676.715-.98.212-.304.29-.662.047-1.084C4.765 2.543 3.823.992 3.2.368 2.577-.256 1.982-.142.85.992-.115 1.96.016 2.628.074 3.036c.058.407 1.04 3.336 4.303 6.606z"/></g></g></svg>